<svg width="99" height="99" viewBox="0 0 99 99" fill="none" xmlns="http://www.w3.org/2000/svg">
<path d="M49.4166 97.1005H49.4178C62.1263 97.0861 74.3101 92.0313 83.2964 83.045C92.2826 74.0587 97.3374 61.8748 97.3517 49.1663V49.1652C97.3516 39.6845 94.5402 30.4168 89.273 22.534C84.0058 14.6511 76.5193 8.50727 67.7603 4.87923C59.0014 1.25119 49.3632 0.301969 40.0648 2.15159C30.7663 4.00121 22.2251 8.56657 15.5213 15.2704C8.81751 21.9743 4.25218 30.5155 2.40263 39.814C0.553069 49.1125 1.50235 58.7506 5.13045 67.5095C8.75855 76.2685 14.9025 83.7549 22.7854 89.0221C30.6682 94.2892 39.936 97.1005 49.4166 97.1005ZM24.614 12.0458C31.9554 7.14035 40.5866 4.52202 49.4161 4.52193C61.2523 4.53541 72.5998 9.24327 80.9692 17.6127C89.3388 25.9822 94.0468 37.33 94.0602 49.1663C94.0601 57.9956 91.4418 66.6266 86.5366 73.9679C81.6311 81.3096 74.6587 87.0317 66.5012 90.4107C58.3436 93.7897 49.3673 94.6739 40.7073 92.9513C32.0473 91.2288 24.0925 86.9769 17.8489 80.7334C11.6054 74.4899 7.3535 66.5352 5.63089 57.8752C3.90828 49.2151 4.79234 40.2388 8.1713 32.0812C11.5503 23.9237 17.2724 16.9513 24.614 12.0458Z" fill="white" stroke="white" stroke-width="2"/>
<path d="M43.1032 73.2569C42.3039 73.2569 41.5155 73.0708 40.8006 72.7132C40.0857 72.3556 39.4639 71.8365 38.9844 71.1969L26.356 54.3587C25.9496 53.8178 25.6538 53.2021 25.4855 52.5469C25.3172 51.8916 25.2797 51.2096 25.3751 50.5398C25.4705 49.87 25.6969 49.2256 26.0415 48.6434C26.3861 48.0612 26.8421 47.5526 27.3833 47.1467C27.9246 46.7408 28.5405 46.4455 29.1959 46.2777C29.8513 46.11 30.5334 46.0731 31.2031 46.1691C31.8728 46.2651 32.517 46.4921 33.0989 46.8372C33.6808 47.1823 34.189 47.6387 34.5944 48.1803L42.8564 59.1954L64.0762 27.3662C64.4512 26.8035 64.9335 26.3203 65.4953 25.944C66.0572 25.5678 66.6876 25.3058 67.3506 25.1732C68.0137 25.0406 68.6964 25.0399 69.3597 25.1711C70.0231 25.3024 70.6541 25.563 71.2167 25.9381C71.7794 26.3132 72.2626 26.7954 72.6388 27.3572C73.0151 27.9191 73.277 28.5495 73.4096 29.2126C73.5422 29.8756 73.543 30.5583 73.4118 31.2216C73.2805 31.885 73.0199 32.516 72.6448 33.0786L47.388 70.9639C46.9311 71.6491 46.3166 72.2147 45.596 72.6134C44.8754 73.0121 44.0697 73.2322 43.2465 73.2552C43.1988 73.2561 43.151 73.2569 43.1032 73.2569Z" fill="white"/>
</svg>
