<svg width="15" height="15" viewBox="0 0 15 15" version="1.1" xmlns="http://www.w3.org/2000/svg"
    xmlns:xlink="http://www.w3.org/1999/xlink" xml:space="preserve" xmlns:serif="http://www.serif.com/"
    style="fill-rule:evenodd;clip-rule:evenodd;stroke-linecap:round;stroke-linejoin:round;">
    <g transform="matrix(1.48403,0,0,1.48403,20.8887,2.6846)">
        <rect id="Artboard2" x="-14.076" y="-1.809" width="10.101" height="10.101" style="fill:none;" stroke="none" />
        <g id="Artboard21" serif:id="Artboard2">
            <g id="edit-write.svg" transform="matrix(0.474365,0,0,0.440296,-9.02907,3.37392)">
                <g transform="matrix(1,0,0,1,-12,-12)">
                    <path
                        d="M11,3L5,3C3.895,3 3,3.895 3,5L3,19C3,20.105 3.895,21 5,21L19,21C20.105,21 21,20.105 21,19L21,13"
                        style="fill:none;fill-rule:nonzero;stroke-width:2px;" />
                    <path
                        d="M9.5,11.5L17.5,3.5C18.328,2.672 19.672,2.672 20.5,3.5C21.328,4.328 21.328,5.672 20.5,6.5L12.5,14.5L8,16L9.5,11.5Z"
                        style="fill:none;fill-rule:nonzero;stroke-width:2px;" />
                </g>
            </g>
        </g>
    </g>
</svg>