<svg width="36" height="38" viewBox="0 0 36 38" fill="none" xmlns="http://www.w3.org/2000/svg">
<path d="M3 31.7104V14.752C3 13.9343 3.31607 13.15 3.87868 12.5718C4.44129 11.9936 5.20435 11.6687 6 11.6687H30C30.7957 11.6687 31.5587 11.9936 32.1213 12.5718C32.6839 13.15 33 13.9343 33 14.752V31.7104C33 32.5281 32.6839 33.3124 32.1213 33.8906C31.5587 34.4688 30.7957 34.7937 30 34.7937H6C5.20435 34.7937 4.44129 34.4688 3.87868 33.8906C3.31607 33.3124 3 32.5281 3 31.7104Z" stroke="#3D50FF" stroke-width="2.58333"/>
<path d="M20.4855 20.6535L16.242 25.0149M24.7275 20.6535C24.4508 20.948 24.1197 21.1829 23.7537 21.3445C23.3877 21.5061 22.994 21.5912 22.5957 21.5947C22.1974 21.5983 21.8023 21.5203 21.4336 21.3652C21.0649 21.2102 20.73 20.9813 20.4483 20.6918C20.1666 20.4023 19.9439 20.058 19.793 19.6791C19.6422 19.3001 19.5663 18.8941 19.5697 18.4847C19.5732 18.0753 19.656 17.6707 19.8132 17.2945C19.9704 16.9184 20.199 16.5781 20.4855 16.2937M16.242 29.3747C16.7885 28.7932 17.0909 28.0144 17.084 27.2059C17.0772 26.3975 16.7617 25.6241 16.2055 25.0525C15.6492 24.4808 14.8968 24.1565 14.1102 24.1495C13.3236 24.1425 12.5658 24.4533 12 25.0149M12.75 4.7312L18 10.127L23.25 4.7312" stroke="#3D50FF" stroke-width="2.58333" stroke-linecap="round" stroke-linejoin="round"/>
</svg>
