<svg width="7" height="13" viewBox="0 0 7 13" fill="none" xmlns="http://www.w3.org/2000/svg">
    <path
        d="M6.46428 6.50941C6.46467 6.70933 6.39496 6.90308 6.26724 7.05703L1.98374 12.1909C1.83833 12.3656 1.62937 12.4755 1.40283 12.4964C1.1763 12.5172 0.950746 12.4474 0.775793 12.3021C0.600841 12.1569 0.49082 11.9482 0.469934 11.7219C0.449048 11.4957 0.519007 11.2704 0.664422 11.0957L4.50244 6.50941L0.801495 1.92315C0.730332 1.83563 0.67719 1.73492 0.645122 1.62682C0.613054 1.51872 0.602693 1.40536 0.614635 1.29324C0.626577 1.18113 0.660585 1.07248 0.714706 0.973533C0.768827 0.874588 0.841994 0.787303 0.93 0.716692C1.01809 0.638332 1.12143 0.578986 1.23355 0.542371C1.34567 0.505755 1.46415 0.492661 1.58157 0.503907C1.69899 0.515153 1.81282 0.550496 1.91593 0.607724C2.01904 0.664953 2.10921 0.742833 2.18078 0.836484L6.31864 5.97036C6.42617 6.12872 6.47745 6.31852 6.46428 6.50941Z"
        stroke="0" />
</svg>