<svg width="15" height="15" viewBox="0 0 15 15" version="1.1" xmlns="http://www.w3.org/2000/svg"
    xmlns:xlink="http://www.w3.org/1999/xlink" xml:space="preserve" xmlns:serif="http://www.serif.com/"
    style="fill-rule:evenodd;clip-rule:evenodd;stroke-linecap:round;stroke-linejoin:round;">
    <g transform="matrix(1.48403,0,0,1.48403,20.8887,2.6846)">
        <rect id="Artboard2" x="-14.076" y="-1.809" width="10.101" height="10.101" style="fill:none;" />
        <g id="Artboard21" serif:id="Artboard2">
            <g transform="matrix(1,0,0,1,-0.0259896,0.0261462)">
                <g>
                    <g transform="matrix(0.420108,0,0,0.420108,-14.0407,-1.82617)">
                        <path d="M1,12C1,12 5,4 12,4C19,4 23,12 23,12"
                            style="fill:none;fill-rule:nonzero;stroke:rgb(48,50,55);stroke-width:2px;" />
                    </g>
                    <g transform="matrix(0.420108,0,0,0.420108,-14.0407,-1.82617)">
                        <path d="M1,12C1,12 5,20 12,20C19,20 23,12 23,12"
                            style="fill:none;fill-rule:nonzero;stroke:rgb(48,50,55);stroke-width:2px;" />
                    </g>
                    <g transform="matrix(0.420108,0,0,0.420108,-14.0407,-1.82617)">
                        <path
                            d="M12,15C13.657,15 15,13.657 15,12C15,10.343 13.657,9 12,9C10.343,9 9,10.343 9,12C9,13.657 10.343,15 12,15Z"
                            style="fill:none;fill-rule:nonzero;stroke:rgb(48,50,55);stroke-width:2px;" />
                    </g>
                </g>
            </g>
        </g>
    </g>
</svg>