<svg width="24" height="24" viewBox="0 0 24 24" fill="none" xmlns="http://www.w3.org/2000/svg">
    <path
        d="M12 22C10.6167 22 9.31667 21.7373 8.1 21.212C6.88333 20.6867 5.825 19.9743 4.925 19.075C4.025 18.175 3.31267 17.1167 2.788 15.9C2.26333 14.6833 2.00067 13.3833 2 12C2 10.6167 2.26267 9.31667 2.788 8.1C3.31333 6.88333 4.02567 5.825 4.925 4.925C5.825 4.025 6.88333 3.31267 8.1 2.788C9.31667 2.26333 10.6167 2.00067 12 2C13.0833 2 14.1083 2.15833 15.075 2.475C16.0417 2.79167 16.9333 3.23333 17.75 3.8L16.3 5.275C15.6667 4.875 14.9917 4.56267 14.275 4.338C13.5583 4.11333 12.8 4.00067 12 4C9.78333 4 7.89567 4.77933 6.337 6.338C4.77833 7.89667 3.99933 9.784 4 12C4 14.2167 4.77933 16.1043 6.338 17.663C7.89667 19.2217 9.784 20.0007 12 20C14.2167 20 16.1043 19.221 17.663 17.663C19.2217 16.105 20.0007 14.2173 20 12C20 11.7 19.9833 11.4 19.95 11.1C19.9167 10.8 19.8667 10.5083 19.8 10.225L21.425 8.6C21.6083 9.13333 21.75 9.68333 21.85 10.25C21.95 10.8167 22 11.4 22 12C22 13.3833 21.7373 14.6833 21.212 15.9C20.6867 17.1167 19.9743 18.175 19.075 19.075C18.175 19.975 17.1167 20.6877 15.9 21.213C14.6833 21.7383 13.3833 22.0007 12 22ZM10.6 16.6L6.35 12.35L7.75 10.95L10.6 13.8L20.6 3.775L22 5.175L10.6 16.6Z" />
</svg>