<svg width="20" height="20" viewBox="0 0 20 20" fill="none" xmlns="http://www.w3.org/2000/svg">
    <path
        d="M19.354 10.75H4.486C4.46 10.75 4.432 10.75 4.406 10.75C4.098 10.756 3.84 11.07 3.84 11.448C3.838 11.928 3.84 12.406 3.838 12.886C3.838 13.056 3.886 13.2 3.976 13.328C4.112 13.526 4.288 13.588 4.494 13.588C9.444 13.586 14.394 13.586 19.344 13.586C19.376 13.586 19.408 13.586 19.442 13.584C19.572 13.58 19.686 13.522 19.788 13.42C19.896 13.312 19.954 13.168 20 13.01V11.324C19.996 11.32 19.99 11.316 19.988 11.312C19.882 10.914 19.696 10.75 19.354 10.75ZM19.734 2.35198C19.652 2.28398 19.558 2.25998 19.466 2.22998H4.372C4.362 2.23398 4.354 2.24198 4.344 2.24398C4.03 2.31398 3.84 2.59198 3.84 2.98398V4.34198C3.84 4.39598 3.842 4.44798 3.848 4.49998C3.89 4.78998 4.13 5.07598 4.444 5.07598C9.424 5.06998 14.404 5.07198 19.382 5.07198H19.432C19.564 5.07398 19.678 5.01598 19.78 4.91798C19.894 4.80598 19.956 4.65598 20 4.49198V2.82598C19.954 2.62998 19.872 2.46798 19.734 2.35198ZM19.358 6.40998H4.484C4.448 6.40998 4.414 6.40998 4.378 6.41398C4.074 6.43998 3.84 6.74398 3.84 7.12198C3.838 7.59398 3.838 8.06598 3.84 8.53998C3.84 8.58598 3.842 8.63198 3.85 8.67798C3.912 9.01998 4.146 9.24598 4.44 9.24598H18.708C18.944 9.24598 19.18 9.24798 19.418 9.24598C19.56 9.24598 19.686 9.18598 19.794 9.07398C19.9 8.96198 19.96 8.81798 20 8.65798V6.98998C19.996 6.98598 19.99 6.98198 19.988 6.97598C19.884 6.57798 19.698 6.40998 19.358 6.40998ZM19.282 14.916H4.506C4.476 14.916 4.448 14.916 4.418 14.916C4.09 14.928 3.84 15.24 3.84 15.644C3.84 16.11 3.842 16.576 3.84 17.042C3.838 17.234 3.896 17.394 4.002 17.534C4.136 17.712 4.308 17.758 4.5 17.758C9.446 17.756 14.394 17.756 19.34 17.756C19.378 17.756 19.416 17.752 19.454 17.752C19.62 17.748 19.75 17.65 19.86 17.504C19.93 17.41 19.962 17.292 20 17.176V15.51C19.85 15.038 19.704 14.916 19.282 14.916ZM0.458 3.49398C0.524 3.46598 0.582 3.43598 0.634 3.40598C0.686 3.37398 0.724 3.34198 0.75 3.30798V4.12798H0.164V4.82798H2.072V4.12798H1.548V2.47798H0.75C0.734 2.50998 0.696 2.54798 0.64 2.59398C0.584 2.63998 0.522 2.68198 0.454 2.72198C0.384 2.76198 0.316 2.79598 0.246 2.82598C0.178 2.85398 0.126 2.86798 0.086 2.86798V3.58398C0.138 3.58398 0.198 3.57598 0.264 3.55998C0.33 3.54398 0.394 3.52198 0.458 3.49398ZM1.538 8.18198C1.612 8.13998 1.686 8.09598 1.754 8.04798C1.812 8.00998 1.866 7.96998 1.918 7.92598C1.97 7.88198 2.016 7.83398 2.052 7.77998C2.09 7.72598 2.12 7.66598 2.14 7.59998C2.162 7.53398 2.174 7.45798 2.174 7.37398C2.174 7.13998 2.092 6.95798 1.928 6.82798C1.766 6.69798 1.526 6.63198 1.21 6.63198C1.092 6.63198 0.976 6.64198 0.864 6.66198C0.752 6.68198 0.646 6.70798 0.546 6.74198C0.446 6.77598 0.354 6.81798 0.272 6.86398C0.19 6.90998 0.122 6.96598 0.07 7.02398L0.564 7.60398C0.652 7.49998 0.736 7.42398 0.818 7.37798C0.898 7.32998 0.984 7.30598 1.074 7.30598C1.152 7.30598 1.212 7.32398 1.256 7.35598C1.3 7.38998 1.322 7.43998 1.322 7.50798C1.322 7.53198 1.316 7.55598 1.304 7.57598C1.29 7.59598 1.262 7.62198 1.218 7.65198C1.174 7.68198 1.11 7.72198 1.024 7.76998C0.938 7.81798 0.82 7.88198 0.672 7.96198C0.556 8.02398 0.46 8.08998 0.382 8.15398C0.304 8.21798 0.24 8.29598 0.19 8.37998C0.14 8.46398 0.104 8.55798 0.084 8.66198C0.06 8.76598 0.05 8.88798 0.05 9.02398H2.218V8.32398H1.314C1.388 8.27198 1.462 8.22598 1.538 8.18198ZM0.96 12.942C0.844 12.942 0.742 12.928 0.652 12.898C0.562 12.87 0.478 12.824 0.4 12.76L0 13.328C0.132 13.44 0.278 13.524 0.44 13.578C0.602 13.632 0.788 13.658 1 13.658C1.182 13.658 1.344 13.64 1.49 13.6C1.636 13.562 1.758 13.506 1.858 13.434C1.958 13.362 2.036 13.272 2.092 13.168C2.148 13.064 2.174 12.948 2.174 12.818C2.174 12.726 2.16 12.638 2.13 12.554C2.1 12.47 2.062 12.396 2.012 12.328C1.962 12.26 1.9 12.208 1.83 12.164C1.76 12.12 1.682 12.092 1.596 12.078C1.674 12.064 1.744 12.036 1.808 11.996C1.874 11.954 1.93 11.904 1.976 11.842C2.022 11.78 2.06 11.716 2.086 11.642C2.112 11.568 2.128 11.488 2.128 11.406C2.128 11.298 2.102 11.198 2.054 11.108C2.004 11.02 1.936 10.944 1.848 10.88C1.76 10.818 1.654 10.768 1.526 10.734C1.4 10.7 1.262 10.682 1.11 10.682C0.998 10.682 0.888 10.692 0.782 10.71C0.676 10.728 0.574 10.752 0.478 10.786C0.382 10.82 0.3 10.858 0.224 10.904C0.148 10.948 0.086 10.998 0.036 11.054L0.532 11.632C0.594 11.536 0.668 11.464 0.752 11.416C0.836 11.368 0.924 11.344 1.022 11.344C1.106 11.344 1.172 11.362 1.218 11.4C1.266 11.438 1.29 11.488 1.29 11.554C1.29 11.642 1.25 11.712 1.17 11.762C1.09 11.812 0.984 11.838 0.852 11.838H0.708V12.382H0.836C1.022 12.382 1.158 12.404 1.24 12.45C1.322 12.496 1.362 12.57 1.362 12.674C1.362 12.768 1.33 12.836 1.266 12.878C1.202 12.92 1.1 12.942 0.96 12.942ZM1.84 14.9H1.306L0 16.564V17.264H1.058V17.774H1.842V17.264H2.204V16.564H1.84V14.9ZM1.148 16.564H0.77L1.148 16.07V16.564Z"
        fill="#303237" />
</svg>