<svg width="20" height="20" viewBox="0 0 20 20" fill="none" xmlns="http://www.w3.org/2000/svg">
    <path
        d="M10.8333 15C10.8333 14.5397 10.4602 14.1666 9.99999 14.1666C9.53975 14.1666 9.16666 14.5397 9.16666 15C9.16666 15.4602 9.53975 15.8333 9.99999 15.8333C10.4602 15.8333 10.8333 15.4602 10.8333 15Z"
        stroke="#393E46" stroke-width="2" stroke-linecap="round" stroke-linejoin="round" />
    <path
        d="M10.8333 9.99998C10.8333 9.53974 10.4602 9.16665 9.99999 9.16665C9.53975 9.16665 9.16666 9.53974 9.16666 9.99998C9.16666 10.4602 9.53975 10.8333 9.99999 10.8333C10.4602 10.8333 10.8333 10.4602 10.8333 9.99998Z"
        stroke="#393E46" stroke-width="2" stroke-linecap="round" stroke-linejoin="round" />
    <path
        d="M10.8333 4.99998C10.8333 4.53974 10.4602 4.16665 9.99999 4.16665C9.53975 4.16665 9.16666 4.53974 9.16666 4.99998C9.16666 5.46022 9.53975 5.83331 9.99999 5.83331C10.4602 5.83331 10.8333 5.46022 10.8333 4.99998Z"
        stroke="#393E46" stroke-width="2" stroke-linecap="round" stroke-linejoin="round" />
</svg>