<svg width="7" height="12" viewBox="0 0 7 12" fill="none" xmlns="http://www.w3.org/2000/svg">
    <path fill-rule="evenodd" clip-rule="evenodd"
        d="M2.8 1.27636C2.8 0.572727 2.1728 0 1.4 0C0.6272 0 0 0.572727 0 1.27636C0 1.98109 0.6272 2.55273 1.4 2.55273C2.1728 2.55273 2.8 1.98109 2.8 1.27636ZM2.8 10.7236C2.8 10.0189 2.1728 9.44727 1.4 9.44727C0.6272 9.44727 0 10.0189 0 10.7236C0 11.4273 0.6272 12 1.4 12C2.1728 12 2.8 11.4273 2.8 10.7236ZM1.4 4.72364C2.1728 4.72364 2.8 5.29636 2.8 6C2.8 6.70364 2.1728 7.27636 1.4 7.27636C0.6272 7.27636 0 6.70364 0 6C0 5.29636 0.6272 4.72364 1.4 4.72364ZM7 1.27636C7 0.572727 6.3728 0 5.6 0C4.8272 0 4.2 0.572727 4.2 1.27636C4.2 1.98109 4.8272 2.55273 5.6 2.55273C6.3728 2.55273 7 1.98109 7 1.27636ZM5.6 9.44727C6.3728 9.44727 7 10.0189 7 10.7236C7 11.4273 6.3728 12 5.6 12C4.8272 12 4.2 11.4273 4.2 10.7236C4.2 10.0189 4.8272 9.44727 5.6 9.44727ZM7 6C7 5.29636 6.3728 4.72364 5.6 4.72364C4.8272 4.72364 4.2 5.29636 4.2 6C4.2 6.70364 4.8272 7.27636 5.6 7.27636C6.3728 7.27636 7 6.70364 7 6Z"
        fill="#393E46" />
</svg>